{
  "source": "C:\\Users\\Peter\\Desktop\\stuff\\MIUN\\quantitative_research\\video_compression\\videos\\HEVC_CLASS_B\\Cactus_1920x1080_50.y4m",
  "output": "C:\\Users\\Peter\\Desktop\\stuff\\MIUN\\quantitative_research\\video_compression\\compressed_videos\\HEVC_CLASS_B\\h264\\12\\Cactus_1920x1080_50_h264.mp4",
  "codec": "h264",
  "ok": "Input #0, yuv4mpegpipe, from 'C:\\Users\\Peter\\Desktop\\stuff\\MIUN\\quantitative_research\\video_compression\\videos\\HEVC_CLASS_B\\Cactus_1920x1080_50.y4m':\n  Duration: 00:00:10.00, start: 0.000000, bitrate: 1244162 kb/s\n  Stream #0:0: Video: rawvideo (I420 / 0x30323449), yuv420p(progressive), 1920x1080, 50 fps, 50 tbr, 50 tbn\n[out#0/mp4 @ 000002371f45a840] Codec AVOption b:a (set bitrate (in bits/s)) has not been used for any stream. The most likely reason is either wrong type (e.g. a video option with no video streams) or that it is a private option of some decoder which was not actually used for any stream.\nStream mapping:\n  Stream #0:0 -> #0:0 (rawvideo (native) -> h264 (libx264))\nPress [q] to stop, [?] for help\n[libx264 @ 000002371f45cc80] using cpu capabilities: MMX2 SSE2Fast SSSE3 SSE4.2 AVX FMA3 BMI2 AVX2\n[libx264 @ 000002371f45cc80] profile High, level 5.0, 4:2:0, 8-bit\n[libx264 @ 000002371f45cc80] 264 - core 165 r3222 b35605a - H.264/MPEG-4 AVC codec - Copyleft 2003-2025 - http://www.videolan.org/x264.html - options: cabac=1 ref=5 deblock=1:0:0 analyse=0x3:0x113 me=hex subme=8 psy=1 psy_rd=1.00:0.00 mixed_ref=1 me_range=16 chroma_me=1 trellis=2 8x8dct=1 cqm=0 deadzone=21,11 fast_pskip=1 chroma_qp_offset=-2 threads=18 lookahead_threads=3 sliced_threads=0 nr=0 decimate=1 interlaced=0 bluray_compat=0 constrained_intra=0 bframes=3 b_pyramid=2 b_adapt=1 b_bias=0 direct=3 weightb=1 open_gop=0 weightp=2 keyint=250 keyint_min=25 scenecut=40 intra_refresh=0 rc_lookahead=50 rc=cbr mbtree=1 bitrate=12000 ratetol=1.0 qcomp=0.60 qpmin=0 qpmax=69 qpstep=4 vbv_maxrate=12000 vbv_bufsize=12000 nal_hrd=none filler=0 ip_ratio=1.40 aq=1:1.00\nOutput #0, mp4, to 'C:\\Users\\Peter\\Desktop\\stuff\\MIUN\\quantitative_research\\video_compression\\compressed_videos\\HEVC_CLASS_B\\h264\\12\\Cactus_1920x1080_50_h264.mp4':\n  Metadata:\n    encoder         : Lavf62.3.100\n  Stream #0:0: Video: h264 (avc1 / 0x31637661), yuv420p(tv, progressive), 1920x1080, q=2-31, 12000 kb/s, 50 fps, 12800 tbn\n    Metadata:\n      encoder         : Lavc62.11.100 libx264\n    Side data:\n      cpb: bitrate max/min/avg: 12000000/0/12000000 buffer size: 12000000 vbv_delay: N/A\nframe=    0 fps=0.0 q=0.0 size=       0KiB time=N/A bitrate=N/A speed=N/A elapsed=0:00:00.51    \nframe=    0 fps=0.0 q=0.0 size=       0KiB time=N/A bitrate=N/A speed=N/A elapsed=0:00:01.07    \nframe=    0 fps=0.0 q=0.0 size=       0KiB time=N/A bitrate=N/A speed=N/A elapsed=0:00:01.59    \nframe=    0 fps=0.0 q=0.0 size=       0KiB time=N/A bitrate=N/A speed=N/A elapsed=0:00:02.11    \nframe=    0 fps=0.0 q=0.0 size=       0KiB time=N/A bitrate=N/A speed=N/A elapsed=0:00:02.62    \nframe=    0 fps=0.0 q=0.0 size=       0KiB time=N/A bitrate=N/A speed=N/A elapsed=0:00:03.14    \nframe=    0 fps=0.0 q=0.0 size=       0KiB time=N/A bitrate=N/A speed=N/A elapsed=0:00:03.67    \nframe=    0 fps=0.0 q=0.0 size=       0KiB time=N/A bitrate=N/A speed=N/A elapsed=0:00:04.22    \nframe=    0 fps=0.0 q=0.0 size=       0KiB time=N/A bitrate=N/A speed=N/A elapsed=0:00:04.76    \nframe=    0 fps=0.0 q=0.0 size=       0KiB time=N/A bitrate=N/A speed=N/A elapsed=0:00:05.30    \nframe=   12 fps=2.1 q=30.0 size=     256KiB time=00:00:00.20 bitrate=10487.7kbits/s speed=0.0342x elapsed=0:00:05.84    \nframe=   18 fps=2.8 q=29.0 size=     256KiB time=00:00:00.32 bitrate=6554.8kbits/s speed=0.0501x elapsed=0:00:06.38    \nframe=   21 fps=3.0 q=28.0 size=     512KiB time=00:00:00.38 bitrate=11038.7kbits/s speed=0.0548x elapsed=0:00:06.93    \nframe=   21 fps=2.8 q=28.0 size=     512KiB time=00:00:00.38 bitrate=11038.7kbits/s speed=0.0509x elapsed=0:00:07.46    \nframe=   27 fps=3.4 q=28.0 size=     512KiB time=00:00:00.50 bitrate=8389.4kbits/s speed=0.0626x elapsed=0:00:07.99    \nframe=   33 fps=3.9 q=28.0 size=     768KiB time=00:00:00.62 bitrate=10148.1kbits/s speed=0.0727x elapsed=0:00:08.53    \nframe=   41 fps=4.5 q=29.0 size=     768KiB time=00:00:00.78 bitrate=8066.5kbits/s speed=0.086x elapsed=0:00:09.06    \nframe=   41 fps=4.3 q=29.0 size=     768KiB time=00:00:00.78 bitrate=8066.5kbits/s speed=0.0812x elapsed=0:00:09.60    \nframe=   41 fps=4.0 q=29.0 size=     768KiB time=00:00:00.78 bitrate=8066.5kbits/s speed=0.0769x elapsed=0:00:10.14    \nframe=   41 fps=3.8 q=29.0 size=     768KiB time=00:00:00.78 bitrate=8066.5kbits/s speed=0.073x elapsed=0:00:10.68    \nframe=   45 fps=4.0 q=29.0 size=    1024KiB time=00:00:00.86 bitrate=9754.6kbits/s speed=0.0766x elapsed=0:00:11.23    \nframe=   54 fps=4.6 q=29.0 size=    1280KiB time=00:00:01.04 bitrate=10082.8kbits/s speed=0.0884x elapsed=0:00:11.76    \nframe=   57 fps=4.6 q=29.0 size=    1280KiB time=00:00:01.10 bitrate=9532.9kbits/s speed=0.0895x elapsed=0:00:12.29    \nframe=   64 fps=5.0 q=29.0 size=    1536KiB time=00:00:01.24 bitrate=10147.8kbits/s speed=0.0967x elapsed=0:00:12.82    \nframe=   65 fps=4.9 q=29.0 size=    1536KiB time=00:00:01.26 bitrate=9986.7kbits/s speed=0.0943x elapsed=0:00:13.36    \nframe=   65 fps=4.7 q=29.0 size=    1536KiB time=00:00:01.26 bitrate=9986.7kbits/s speed=0.0907x elapsed=0:00:13.89    \nframe=   65 fps=4.5 q=29.0 size=    1536KiB time=00:00:01.26 bitrate=9986.7kbits/s speed=0.0873x elapsed=0:00:14.43    \nframe=   70 fps=4.7 q=29.0 size=    1536KiB time=00:00:01.36 bitrate=9252.4kbits/s speed=0.0907x elapsed=0:00:14.98    \nframe=   77 fps=5.0 q=29.0 size=    1792KiB time=00:00:01.50 bitrate=9787.0kbits/s speed=0.0965x elapsed=0:00:15.54    \nframe=   81 fps=5.0 q=29.0 size=    2048KiB time=00:00:01.58 bitrate=10618.7kbits/s speed=0.0983x elapsed=0:00:16.07    \nframe=   88 fps=5.3 q=29.0 size=    2304KiB time=00:00:01.70 bitrate=11102.8kbits/s speed=0.102x elapsed=0:00:16.60    \nframe=   97 fps=5.7 q=29.0 size=    2560KiB time=00:00:01.82 bitrate=11523.0kbits/s speed=0.106x elapsed=0:00:17.13    \nframe=  101 fps=5.6 q=29.0 size=    2560KiB time=00:00:01.98 bitrate=10591.9kbits/s speed=0.11x elapsed=0:00:17.95    \nframe=  101 fps=5.4 q=29.0 size=    2560KiB time=00:00:01.98 bitrate=10591.9kbits/s speed=0.106x elapsed=0:00:18.59    \nframe=  105 fps=5.5 q=29.0 size=    2560KiB time=00:00:02.06 bitrate=10180.5kbits/s speed=0.107x elapsed=0:00:19.16    \nframe=  121 fps=6.1 q=28.0 size=    3072KiB time=00:00:02.38 bitrate=10574.0kbits/s speed=0.12x elapsed=0:00:19.87    \nframe=  121 fps=5.9 q=28.0 size=    3072KiB time=00:00:02.38 bitrate=10574.0kbits/s speed=0.116x elapsed=0:00:20.49    \nframe=  125 fps=6.0 q=28.0 size=    3072KiB time=00:00:02.46 bitrate=10230.2kbits/s speed=0.117x elapsed=0:00:21.00    \nframe=  129 fps=6.0 q=28.0 size=    3328KiB time=00:00:02.54 bitrate=10733.6kbits/s speed=0.118x elapsed=0:00:21.52    \nframe=  135 fps=6.1 q=28.0 size=    3584KiB time=00:00:02.66 bitrate=11037.8kbits/s speed=0.121x elapsed=0:00:22.04    \nframe=  137 fps=6.1 q=28.0 size=    3584KiB time=00:00:02.70 bitrate=10874.3kbits/s speed=0.12x elapsed=0:00:22.55    \nframe=  141 fps=6.1 q=28.0 size=    3584KiB time=00:00:02.78 bitrate=10561.3kbits/s speed=0.12x elapsed=0:00:23.07    \nframe=  147 fps=6.2 q=28.0 size=    3840KiB time=00:00:02.90 bitrate=10847.5kbits/s speed=0.123x elapsed=0:00:23.57    \nframe=  150 fps=6.2 q=28.0 size=    3840KiB time=00:00:02.96 bitrate=10627.6kbits/s speed=0.123x elapsed=0:00:24.10    \nframe=  165 fps=6.7 q=28.0 size=    4352KiB time=00:00:03.26 bitrate=10936.2kbits/s speed=0.132x elapsed=0:00:24.62    \nframe=  169 fps=6.7 q=28.0 size=    4352KiB time=00:00:03.34 bitrate=10674.2kbits/s speed=0.133x elapsed=0:00:25.13    \nframe=  173 fps=6.7 q=28.0 size=    4352KiB time=00:00:03.42 bitrate=10424.6kbits/s speed=0.133x elapsed=0:00:25.64    \nframe=  177 fps=6.8 q=28.0 size=    4608KiB time=00:00:03.50 bitrate=10785.5kbits/s speed=0.134x elapsed=0:00:26.16    \nframe=  185 fps=6.9 q=28.0 size=    4608KiB time=00:00:03.66 bitrate=10314.0kbits/s speed=0.137x elapsed=0:00:26.67    \nframe=  185 fps=6.8 q=28.0 size=    4608KiB time=00:00:03.66 bitrate=10314.0kbits/s speed=0.135x elapsed=0:00:27.18    \nframe=  186 fps=6.7 q=28.0 size=    4608KiB time=00:00:03.68 bitrate=10257.9kbits/s speed=0.133x elapsed=0:00:27.71    \nframe=  191 fps=6.8 q=28.0 size=    4864KiB time=00:00:03.78 bitrate=10541.3kbits/s speed=0.134x elapsed=0:00:28.23    \nframe=  199 fps=6.9 q=28.0 size=    5120KiB time=00:00:03.94 bitrate=10645.5kbits/s speed=0.137x elapsed=0:00:28.74    \nframe=  205 fps=7.0 q=28.0 size=    5376KiB time=00:00:04.06 bitrate=10847.4kbits/s speed=0.139x elapsed=0:00:29.25    \nframe=  205 fps=6.9 q=28.0 size=    5376KiB time=00:00:04.06 bitrate=10847.4kbits/s speed=0.136x elapsed=0:00:29.77    \nframe=  206 fps=6.8 q=28.0 size=    5376KiB time=00:00:04.08 bitrate=10794.3kbits/s speed=0.135x elapsed=0:00:30.28    \nframe=  209 fps=6.8 q=28.0 size=    5376KiB time=00:00:04.14 bitrate=10637.8kbits/s speed=0.134x elapsed=0:00:30.80    \nframe=  209 fps=6.7 q=28.0 size=    5376KiB time=00:00:04.14 bitrate=10637.8kbits/s speed=0.132x elapsed=0:00:31.33    \nframe=  217 fps=6.8 q=28.0 size=    5632KiB time=00:00:04.30 bitrate=10729.7kbits/s speed=0.135x elapsed=0:00:31.87    \nframe=  221 fps=6.8 q=28.0 size=    5632KiB time=00:00:04.38 bitrate=10533.7kbits/s speed=0.135x elapsed=0:00:32.40    \nframe=  230 fps=7.0 q=28.0 size=    5888KiB time=00:00:04.52 bitrate=10671.4kbits/s speed=0.137x elapsed=0:00:32.92    \nframe=  233 fps=7.0 q=28.0 size=    6144KiB time=00:00:04.62 bitrate=10894.4kbits/s speed=0.138x elapsed=0:00:33.45    \nframe=  233 fps=6.9 q=28.0 size=    6144KiB time=00:00:04.62 bitrate=10894.4kbits/s speed=0.136x elapsed=0:00:33.99    \nframe=  234 fps=6.8 q=25.0 size=    6144KiB time=00:00:04.64 bitrate=10847.4kbits/s speed=0.134x elapsed=0:00:34.52    \nframe=  245 fps=7.0 q=28.0 size=    6400KiB time=00:00:04.86 bitrate=10787.9kbits/s speed=0.139x elapsed=0:00:35.05    \nframe=  249 fps=7.0 q=29.0 size=    6400KiB time=00:00:04.94 bitrate=10613.2kbits/s speed=0.139x elapsed=0:00:35.56    \nframe=  250 fps=6.9 q=29.0 size=    6400KiB time=00:00:04.96 bitrate=10570.4kbits/s speed=0.137x elapsed=0:00:36.08    \nframe=  250 fps=6.8 q=29.0 size=    6400KiB time=00:00:04.96 bitrate=10570.4kbits/s speed=0.135x elapsed=0:00:36.62    \nframe=  250 fps=6.7 q=29.0 size=    6400KiB time=00:00:04.96 bitrate=10570.4kbits/s speed=0.134x elapsed=0:00:37.14    \nframe=  250 fps=6.6 q=29.0 size=    6400KiB time=00:00:04.96 bitrate=10570.4kbits/s speed=0.132x elapsed=0:00:37.66    \nframe=  255 fps=6.7 q=29.0 size=    6912KiB time=00:00:05.06 bitrate=11190.4kbits/s speed=0.132x elapsed=0:00:38.19    \nframe=  255 fps=6.6 q=29.0 size=    6912KiB time=00:00:05.06 bitrate=11190.4kbits/s speed=0.131x elapsed=0:00:38.70    \nframe=  256 fps=6.5 q=29.0 size=    7168KiB time=00:00:05.08 bitrate=11559.2kbits/s speed=0.13x elapsed=0:00:39.22    \nframe=  265 fps=6.7 q=29.0 size=    7424KiB time=00:00:05.26 bitrate=11562.3kbits/s speed=0.132x elapsed=0:00:39.74    \nframe=  274 fps=6.8 q=29.0 size=    7680KiB time=00:00:05.40 bitrate=11650.9kbits/s speed=0.134x elapsed=0:00:40.26    \nframe=  277 fps=6.8 q=29.0 size=    7680KiB time=00:00:05.50 bitrate=11439.1kbits/s speed=0.135x elapsed=0:00:40.81    \nframe=  279 fps=6.7 q=29.0 size=    7680KiB time=00:00:05.54 bitrate=11356.5kbits/s speed=0.134x elapsed=0:00:41.34    \nframe=  284 fps=6.8 q=29.0 size=    7680KiB time=00:00:05.62 bitrate=11194.8kbits/s speed=0.134x elapsed=0:00:41.87    \nframe=  289 fps=6.8 q=29.0 size=    7936KiB time=00:00:05.74 bitrate=11326.1kbits/s speed=0.135x elapsed=0:00:42.41    \nframe=  291 fps=6.8 q=29.0 size=    7936KiB time=00:00:05.78 bitrate=11247.8kbits/s speed=0.135x elapsed=0:00:42.94    \nframe=  295 fps=6.8 q=29.0 size=    8192KiB time=00:00:05.86 bitrate=11452.1kbits/s speed=0.135x elapsed=0:00:43.47    \nframe=  295 fps=6.7 q=29.0 size=    8192KiB time=00:00:05.86 bitrate=11452.1kbits/s speed=0.133x elapsed=0:00:44.00    \nframe=  304 fps=6.8 q=29.0 size=    8448KiB time=00:00:06.04 bitrate=11458.0kbits/s speed=0.136x elapsed=0:00:44.52    \nframe=  313 fps=6.9 q=29.0 size=    8704KiB time=00:00:06.22 bitrate=11463.6kbits/s speed=0.138x elapsed=0:00:45.06    \nframe=  315 fps=6.9 q=29.0 size=    8704KiB time=00:00:06.26 bitrate=11390.3kbits/s speed=0.137x elapsed=0:00:45.59    \nframe=  315 fps=6.8 q=29.0 size=    8704KiB time=00:00:06.26 bitrate=11390.3kbits/s speed=0.136x elapsed=0:00:46.13    \nframe=  317 fps=6.8 q=29.0 size=    8704KiB time=00:00:06.30 bitrate=11318.0kbits/s speed=0.135x elapsed=0:00:46.64    \nframe=  323 fps=6.8 q=29.0 size=    8704KiB time=00:00:06.42 bitrate=11106.5kbits/s speed=0.136x elapsed=0:00:47.17    \nframe=  332 fps=7.0 q=29.0 size=    8960KiB time=00:00:06.60 bitrate=11121.3kbits/s speed=0.138x elapsed=0:00:47.70    \nframe=  339 fps=7.0 q=29.0 size=    9216KiB time=00:00:06.74 bitrate=11201.5kbits/s speed=0.14x elapsed=0:00:48.22    \nframe=  339 fps=7.0 q=29.0 size=    9216KiB time=00:00:06.74 bitrate=11201.5kbits/s speed=0.138x elapsed=0:00:48.75    \nframe=  347 fps=7.0 q=29.0 size=    9472KiB time=00:00:06.90 bitrate=11245.7kbits/s speed=0.14x elapsed=0:00:49.27    \nframe=  347 fps=7.0 q=29.0 size=    9472KiB time=00:00:06.90 bitrate=11245.7kbits/s speed=0.139x elapsed=0:00:49.79    \nframe=  349 fps=6.9 q=29.0 size=    9472KiB time=00:00:06.92 bitrate=11213.2kbits/s speed=0.138x elapsed=0:00:50.31    \nframe=  358 fps=7.0 q=29.0 size=    9728KiB time=00:00:07.12 bitrate=11192.7kbits/s speed=0.14x elapsed=0:00:50.82    \nframe=  359 fps=7.0 q=29.0 size=    9728KiB time=00:00:07.14 bitrate=11161.4kbits/s speed=0.139x elapsed=0:00:51.34    \nframe=  359 fps=6.9 q=29.0 size=    9728KiB time=00:00:07.14 bitrate=11161.4kbits/s speed=0.138x elapsed=0:00:51.86    \nframe=  360 fps=6.9 q=29.0 size=    9728KiB time=00:00:07.16 bitrate=11130.2kbits/s speed=0.137x elapsed=0:00:52.40    \nframe=  367 fps=6.9 q=29.0 size=    9984KiB time=00:00:07.30 bitrate=11204.0kbits/s speed=0.138x elapsed=0:00:52.93    \nframe=  368 fps=6.9 q=29.0 size=    9984KiB time=00:00:07.32 bitrate=11173.4kbits/s speed=0.137x elapsed=0:00:53.46    \nframe=  375 fps=6.9 q=29.0 size=   10240KiB time=00:00:07.46 bitrate=11244.8kbits/s speed=0.138x elapsed=0:00:53.99    \nframe=  375 fps=6.9 q=29.0 size=   10240KiB time=00:00:07.46 bitrate=11244.8kbits/s speed=0.137x elapsed=0:00:54.52    \nframe=  377 fps=6.8 q=29.0 size=   10240KiB time=00:00:07.50 bitrate=11184.9kbits/s speed=0.136x elapsed=0:00:55.05    \nframe=  384 fps=6.9 q=29.0 size=   10496KiB time=00:00:07.64 bitrate=11254.4kbits/s speed=0.137x elapsed=0:00:55.56    \nframe=  391 fps=7.0 q=29.0 size=   10752KiB time=00:00:07.78 bitrate=11321.4kbits/s speed=0.139x elapsed=0:00:56.07    \nframe=  391 fps=6.9 q=29.0 size=   10752KiB time=00:00:07.78 bitrate=11321.4kbits/s speed=0.137x elapsed=0:00:56.59    \nframe=  395 fps=6.9 q=29.0 size=   10752KiB time=00:00:07.86 bitrate=11206.2kbits/s speed=0.138x elapsed=0:00:57.12    \nframe=  403 fps=7.0 q=29.0 size=   11008KiB time=00:00:08.02 bitrate=11244.1kbits/s speed=0.139x elapsed=0:00:57.65    \nframe=  411 fps=7.1 q=29.0 size=   11264KiB time=00:00:08.18 bitrate=11280.6kbits/s speed=0.141x elapsed=0:00:58.20    \nframe=  418 fps=7.1 q=29.0 size=   11520KiB time=00:00:08.32 bitrate=11342.8kbits/s speed=0.142x elapsed=0:00:58.77    \nframe=  419 fps=7.1 q=28.0 size=   11520KiB time=00:00:08.34 bitrate=11315.6kbits/s speed=0.141x elapsed=0:00:59.29    \nframe=  419 fps=7.0 q=28.0 size=   11520KiB time=00:00:08.34 bitrate=11315.6kbits/s speed=0.139x elapsed=0:00:59.86    \nframe=  427 fps=7.1 q=28.0 size=   11776KiB time=00:00:08.42 bitrate=11457.2kbits/s speed=0.139x elapsed=0:01:00.49    \nframe=  431 fps=7.0 q=29.0 size=   11776KiB time=00:00:08.58 bitrate=11243.5kbits/s speed=0.14x elapsed=0:01:01.17    \nframe=  439 fps=7.1 q=28.0 size=   12032KiB time=00:00:08.74 bitrate=11277.6kbits/s speed=0.142x elapsed=0:01:01.72    \nframe=  443 fps=7.1 q=28.0 size=   12288KiB time=00:00:08.82 bitrate=11413.1kbits/s speed=0.142x elapsed=0:01:02.24    \nframe=  447 fps=7.1 q=28.0 size=   12288KiB time=00:00:08.90 bitrate=11310.5kbits/s speed=0.142x elapsed=0:01:02.78    \nframe=  451 fps=7.1 q=28.0 size=   12288KiB time=00:00:08.98 bitrate=11209.8kbits/s speed=0.142x elapsed=0:01:03.30    \nframe=  455 fps=7.1 q=28.0 size=   12544KiB time=00:00:09.06 bitrate=11342.3kbits/s speed=0.142x elapsed=0:01:03.81    \nframe=  467 fps=7.3 q=26.0 size=   12800KiB time=00:00:09.30 bitrate=11275.1kbits/s speed=0.145x elapsed=0:01:04.33    \nframe=  471 fps=7.3 q=25.0 size=   12800KiB time=00:00:09.30 bitrate=11275.1kbits/s speed=0.143x elapsed=0:01:04.87    \nframe=  475 fps=7.3 q=25.0 size=   13056KiB time=00:00:09.46 bitrate=11306.0kbits/s speed=0.145x elapsed=0:01:05.42    \nframe=  479 fps=7.3 q=24.0 size=   13056KiB time=00:00:09.54 bitrate=11211.2kbits/s speed=0.145x elapsed=0:01:05.95    \nframe=  487 fps=7.3 q=-1.0 size=   13312KiB time=00:00:09.62 bitrate=11336.0kbits/s speed=0.145x elapsed=0:01:06.49    \nframe=  491 fps=7.3 q=-1.0 size=   13312KiB time=00:00:09.78 bitrate=11150.5kbits/s speed=0.146x elapsed=0:01:07.08    \nframe=  495 fps=7.3 q=-1.0 size=   13568KiB time=00:00:09.86 bitrate=11272.8kbits/s speed=0.146x elapsed=0:01:07.74    \n[mp4 @ 000002371f45b940] Starting second pass: moving the moov atom to the beginning of the file\n[out#0/mp4 @ 000002371f45a840] video:13813KiB audio:0KiB subtitle:0KiB other streams:0KiB global headers:0KiB muxing overhead: 0.049880%\nframe=  500 fps=7.4 q=-1.0 Lsize=   13819KiB time=00:00:09.96 bitrate=11366.3kbits/s speed=0.146x elapsed=0:01:07.99    \n[libx264 @ 000002371f45cc80] frame I:2     Avg QP:23.52  size:316219\n[libx264 @ 000002371f45cc80] frame P:126   Avg QP:25.73  size: 70174\n[libx264 @ 000002371f45cc80] frame B:372   Avg QP:30.10  size: 12551\n[libx264 @ 000002371f45cc80] consecutive B-frames:  0.8%  0.0%  0.0% 99.2%\n[libx264 @ 000002371f45cc80] mb I  I16..4:  6.6% 75.0% 18.4%\n[libx264 @ 000002371f45cc80] mb P  I16..4:  0.3%  5.8%  0.8%  P16..4: 44.1% 17.6% 12.3%  0.0%  0.0%    skip:19.2%\n[libx264 @ 000002371f45cc80] mb B  I16..4:  0.0%  0.5%  0.1%  B16..8: 31.7%  4.3%  1.3%  direct: 2.9%  skip:59.3%  L0:39.0% L1:48.3% BI:12.7%\n[libx264 @ 000002371f45cc80] 8x8 transform intra:82.7% inter:69.7%\n[libx264 @ 000002371f45cc80] direct mvs  spatial:97.3% temporal:2.7%\n[libx264 @ 000002371f45cc80] coded y,uvDC,uvAC intra: 87.0% 84.6% 58.2% inter: 14.5% 14.6% 2.8%\n[libx264 @ 000002371f45cc80] i16 v,h,dc,p: 14% 22%  3% 62%\n[libx264 @ 000002371f45cc80] i8 v,h,dc,ddl,ddr,vr,hd,vl,hu:  9%  6%  4% 12% 17% 15% 15% 13% 10%\n[libx264 @ 000002371f45cc80] i4 v,h,dc,ddl,ddr,vr,hd,vl,hu:  9%  6%  3% 11% 19% 16% 14% 12% 11%\n[libx264 @ 000002371f45cc80] i8c dc,h,v,p: 40% 18% 19% 24%\n[libx264 @ 000002371f45cc80] Weighted P-Frames: Y:0.0% UV:0.0%\n[libx264 @ 000002371f45cc80] ref P L0: 47.7% 17.9% 19.5%  5.6%  9.2%\n[libx264 @ 000002371f45cc80] ref B L0: 85.8%  9.0%  3.7%  1.4%\n[libx264 @ 000002371f45cc80] ref B L1: 97.0%  3.0%\n[libx264 @ 000002371f45cc80] kb/s:11314.59\n",
  "seconds": 68.77629399299622,
  "probe_out": {}
}